<svg width="16" height="18" viewBox="0 0 16 18" fill="none" xmlns="http://www.w3.org/2000/svg">
<path d="M1.26278 0.824048C1.53297 0.629301 1.89318 0.614145 2.17878 0.785505L14.6788 8.2855C14.9298 8.43611 15.0834 8.70736 15.0834 9.00008C15.0834 9.2928 14.9298 9.56406 14.6788 9.71466L2.17878 17.2147C1.89318 17.386 1.53297 17.3709 1.26278 17.1761C0.992579 16.9814 0.864293 16.6444 0.936545 16.3193L2.37785 9.83341L6.75 9.83342C7.21023 9.83342 7.58333 9.46032 7.58333 9.00008C7.58333 8.53984 7.21023 8.16675 6.75 8.16675L2.37785 8.16675L0.936545 1.68086C0.864293 1.35572 0.992579 1.01879 1.26278 0.824048Z" fill="white"/>
</svg>
