<svg width="40" height="40" viewBox="0 0 40 40" fill="none" xmlns="http://www.w3.org/2000/svg">
<rect opacity="0.1" width="40" height="40" rx="6" fill="white"/>
<path d="M31.5468 9.29694C31.1374 8.9535 30.4944 8.90436 29.8295 9.16842H29.8285C29.1292 9.44598 10.0354 17.5482 9.25808 17.8792C9.11671 17.9278 7.88199 18.3835 8.00918 19.3987C8.12271 20.3141 9.11507 20.6931 9.23625 20.7369L14.0905 22.3812C14.4125 23.4417 15.5998 27.3546 15.8623 28.1905C16.0261 28.7116 16.293 29.3963 16.7608 29.5373C17.1713 29.6939 17.5796 29.5508 17.8438 29.3456L20.8116 26.6224L25.6025 30.3187L25.7166 30.3862C26.0419 30.5287 26.3536 30.6 26.6511 30.6C26.8809 30.6 27.1014 30.5573 27.3121 30.472C28.0299 30.1804 28.317 29.5038 28.347 29.4271L31.9256 11.0255C32.144 10.0427 31.8405 9.54264 31.5468 9.29694ZM18.3716 23.0389L16.734 27.3589L15.0965 21.9589L27.6511 12.7789L18.3716 23.0389Z" fill="white"/>
</svg>
