<svg width="32" height="32" viewBox="0 0 32 32" fill="none" xmlns="http://www.w3.org/2000/svg">
<circle cx="16" cy="16" r="16" fill="url(#paint0_linear_61_7289)" fill-opacity="0.2"/>
<circle cx="16" cy="16" r="15.5" stroke="url(#paint1_linear_61_7289)"/>
<path fill-rule="evenodd" clip-rule="evenodd" d="M18.8811 10.7499C19.6633 10.7499 20.4158 11.059 20.9694 11.6138C21.5236 12.1674 21.8333 12.914 21.8333 13.6957V18.304C21.8333 19.9315 20.5092 21.2499 18.8811 21.2499H13.1183C11.4902 21.2499 10.1667 19.9315 10.1667 18.304V13.6957C10.1667 12.0682 11.4844 10.7499 13.1183 10.7499H18.8811ZM19.8092 14.5649L19.8558 14.5182C19.9952 14.349 19.9952 14.104 19.8494 13.9349C19.7683 13.848 19.6569 13.7949 19.5408 13.7832C19.4183 13.7768 19.3017 13.8182 19.2136 13.8999L16.5833 15.9999C16.245 16.2805 15.7602 16.2805 15.4167 15.9999L12.7917 13.8999C12.6102 13.7657 12.3594 13.7832 12.2083 13.9407C12.0508 14.0982 12.0333 14.349 12.1669 14.524L12.2433 14.5999L14.8975 16.6707C15.2242 16.9274 15.6202 17.0674 16.035 17.0674C16.4486 17.0674 16.8517 16.9274 17.1777 16.6707L19.8092 14.5649Z" fill="white"/>
<defs>
<linearGradient id="paint0_linear_61_7289" x1="0" y1="16.0022" x2="32" y2="16.0022" gradientUnits="userSpaceOnUse">
<stop stop-color="#31C3FF"/>
<stop offset="1" stop-color="#BC35FE"/>
</linearGradient>
<linearGradient id="paint1_linear_61_7289" x1="0" y1="16.0022" x2="32" y2="16.0022" gradientUnits="userSpaceOnUse">
<stop stop-color="#31C3FF"/>
<stop offset="1" stop-color="#BC35FE"/>
</linearGradient>
</defs>
</svg>
