<svg width="32" height="32" viewBox="0 0 32 32" fill="none" xmlns="http://www.w3.org/2000/svg">
<circle cx="16" cy="16" r="16" fill="url(#paint0_linear_61_7318)" fill-opacity="0.1"/>
<path d="M17.125 15.5C17.125 15.8214 17.0297 16.1356 16.8511 16.4028C16.6726 16.67 16.4188 16.8783 16.1219 17.0013C15.8249 17.1243 15.4982 17.1565 15.183 17.0938C14.8678 17.0311 14.5782 16.8763 14.351 16.649C14.1237 16.4218 13.9689 16.1322 13.9062 15.817C13.8435 15.5018 13.8757 15.1751 13.9987 14.8781C14.1217 14.5812 14.33 14.3274 14.5972 14.1489C14.8644 13.9703 15.1786 13.875 15.5 13.875C15.9306 13.8763 16.3431 14.048 16.6476 14.3524C16.952 14.6569 17.1237 15.0694 17.125 15.5ZM20.5781 13.2656V17.7344C20.5781 18.4886 20.2785 19.2119 19.7452 19.7452C19.2119 20.2785 18.4886 20.5781 17.7344 20.5781H13.2656C12.5114 20.5781 11.7881 20.2785 11.2548 19.7452C10.7215 19.2119 10.4219 18.4886 10.4219 17.7344V13.2656C10.4219 12.5114 10.7215 11.7881 11.2548 11.2548C11.7881 10.7215 12.5114 10.4219 13.2656 10.4219H17.7344C18.4886 10.4219 19.2119 10.7215 19.7452 11.2548C20.2785 11.7881 20.5781 12.5114 20.5781 13.2656ZM17.9375 15.5C17.9375 15.0179 17.7945 14.5466 17.5267 14.1458C17.2589 13.745 16.8782 13.4325 16.4328 13.248C15.9874 13.0636 15.4973 13.0153 15.0245 13.1093C14.5516 13.2034 14.1173 13.4355 13.7764 13.7764C13.4355 14.1173 13.2034 14.5516 13.1093 15.0245C13.0153 15.4973 13.0636 15.9874 13.248 16.4328C13.4325 16.8782 13.745 17.2589 14.1458 17.5267C14.5466 17.7945 15.0179 17.9375 15.5 17.9375C16.1465 17.9375 16.7665 17.6807 17.2236 17.2236C17.6807 16.7665 17.9375 16.1465 17.9375 15.5ZM18.75 12.8594C18.75 12.7389 18.7143 12.621 18.6473 12.5208C18.5803 12.4206 18.4852 12.3425 18.3738 12.2964C18.2625 12.2503 18.1399 12.2382 18.0217 12.2617C17.9035 12.2852 17.795 12.3433 17.7097 12.4285C17.6245 12.5137 17.5665 12.6223 17.543 12.7405C17.5194 12.8587 17.5315 12.9812 17.5776 13.0926C17.6238 13.2039 17.7019 13.2991 17.8021 13.3661C17.9023 13.433 18.0201 13.4688 18.1406 13.4688C18.3022 13.4688 18.4572 13.4045 18.5715 13.2903C18.6858 13.176 18.75 13.021 18.75 12.8594Z" fill="white"/>
<circle cx="16" cy="16" r="15.5" stroke="url(#paint1_linear_61_7318)"/>
<defs>
<linearGradient id="paint0_linear_61_7318" x1="0" y1="16.0022" x2="32" y2="16.0022" gradientUnits="userSpaceOnUse">
<stop stop-color="#31C3FF"/>
<stop offset="1" stop-color="#BC35FE"/>
</linearGradient>
<linearGradient id="paint1_linear_61_7318" x1="0" y1="16.0022" x2="32" y2="16.0022" gradientUnits="userSpaceOnUse">
<stop stop-color="#31C3FF"/>
<stop offset="1" stop-color="#BC35FE"/>
</linearGradient>
</defs>
</svg>
