<svg width="32" height="32" viewBox="0 0 32 32" fill="none" xmlns="http://www.w3.org/2000/svg">
<circle cx="16" cy="16" r="16" fill="url(#paint0_linear_61_7305)" fill-opacity="0.1"/>
<circle cx="16" cy="16" r="15.5" stroke="url(#paint1_linear_61_7305)"/>
<path fill-rule="evenodd" clip-rule="evenodd" d="M9.81456 15.2148C13.2253 13.621 15.4996 12.5702 16.6376 12.0625C19.8867 10.613 20.5618 10.3612 21.0019 10.3529C21.0987 10.351 21.3151 10.3768 21.4553 10.4988C21.5736 10.6018 21.6062 10.7409 21.6218 10.8386C21.6374 10.9363 21.6568 11.1588 21.6413 11.3326C21.4653 13.3169 20.7034 18.1323 20.3158 20.3547C20.1518 21.2951 19.8289 21.6104 19.5162 21.6413C18.8368 21.7084 18.3209 21.1597 17.6628 20.697C16.6331 19.973 16.0514 19.5223 15.0519 18.8158C13.8967 17.9994 14.6456 17.5506 15.3039 16.8172C15.4761 16.6253 18.4697 13.7048 18.5276 13.4399C18.5349 13.4067 18.5416 13.2832 18.4732 13.218C18.4048 13.1528 18.3038 13.1751 18.231 13.1928C18.1277 13.2179 16.4827 14.3842 13.296 16.6914C12.829 17.0354 12.4061 17.2029 12.0272 17.1941C11.6094 17.1845 10.8059 16.9408 10.2085 16.7325C9.4758 16.4771 8.89347 16.342 8.94418 15.9081C8.97059 15.6822 9.26072 15.4511 9.81456 15.2148Z" fill="white"/>
<defs>
<linearGradient id="paint0_linear_61_7305" x1="0" y1="16.0022" x2="32" y2="16.0022" gradientUnits="userSpaceOnUse">
<stop stop-color="#31C3FF"/>
<stop offset="1" stop-color="#BC35FE"/>
</linearGradient>
<linearGradient id="paint1_linear_61_7305" x1="0" y1="16.0022" x2="32" y2="16.0022" gradientUnits="userSpaceOnUse">
<stop stop-color="#31C3FF"/>
<stop offset="1" stop-color="#BC35FE"/>
</linearGradient>
</defs>
</svg>
