<svg width="32" height="32" viewBox="0 0 32 32" fill="none" xmlns="http://www.w3.org/2000/svg">
<circle cx="16" cy="16" r="16" fill="url(#paint0_linear_61_7295)" fill-opacity="0.1"/>
<circle cx="16" cy="16" r="15.5" stroke="url(#paint1_linear_61_7295)"/>
<path d="M21.8215 15.6559C21.6231 12.2726 18.549 9.6651 15.0081 10.2484C12.5698 10.6509 10.6156 12.6284 10.2365 15.0668C10.0148 16.4784 10.3065 17.8143 10.9423 18.9168L10.4231 20.8476C10.3065 21.2851 10.709 21.6818 11.1406 21.5593L13.0423 21.0343C13.9056 21.5418 14.9148 21.8334 15.994 21.8334C19.284 21.8334 22.014 18.9343 21.8215 15.6559ZM18.8465 18.1701C18.794 18.2751 18.7298 18.3743 18.6481 18.4676C18.5023 18.6251 18.3448 18.7418 18.1698 18.8118C17.9948 18.8876 17.8023 18.9226 17.5981 18.9226C17.3006 18.9226 16.9798 18.8526 16.6473 18.7068C16.309 18.5609 15.9765 18.3684 15.644 18.1293C15.3056 17.8843 14.9906 17.6101 14.6873 17.3126C14.384 17.0093 14.1156 16.6884 13.8706 16.3559C13.6314 16.0234 13.439 15.6909 13.299 15.3584C13.159 15.0259 13.089 14.7051 13.089 14.4018C13.089 14.2034 13.124 14.0109 13.194 13.8359C13.264 13.6551 13.3748 13.4918 13.5323 13.3459C13.719 13.1593 13.9231 13.0718 14.139 13.0718C14.2206 13.0718 14.3023 13.0893 14.3781 13.1243C14.4539 13.1593 14.524 13.2118 14.5765 13.2876L15.2531 14.2443C15.3056 14.3201 15.3465 14.3843 15.3698 14.4484C15.399 14.5126 15.4106 14.5709 15.4106 14.6293C15.4106 14.6993 15.3873 14.7693 15.3465 14.8393C15.3056 14.9093 15.2531 14.9793 15.1831 15.0493L14.9614 15.2826C14.9264 15.3176 14.9148 15.3526 14.9148 15.3993C14.9148 15.4226 14.9206 15.4459 14.9264 15.4693C14.9381 15.4926 14.944 15.5101 14.9498 15.5276C15.0023 15.6268 15.0956 15.7492 15.224 15.9009C15.3581 16.0526 15.4981 16.2101 15.6498 16.3618C15.8073 16.5193 15.959 16.6592 16.1165 16.7934C16.2681 16.9217 16.3964 17.0093 16.4956 17.0618C16.5131 17.0676 16.5306 17.0792 16.5481 17.0851C16.5715 17.0967 16.5948 17.0968 16.624 17.0968C16.6765 17.0968 16.7115 17.0793 16.7465 17.0443L16.9681 16.8226C17.0439 16.7468 17.114 16.6943 17.1781 16.6593C17.2481 16.6184 17.3123 16.5951 17.3881 16.5951C17.4465 16.5951 17.5048 16.6068 17.569 16.6359C17.6331 16.6651 17.7031 16.7001 17.7731 16.7526L18.7415 17.4409C18.8173 17.4934 18.8698 17.5576 18.9048 17.6276C18.934 17.7034 18.9515 17.7734 18.9515 17.8551C18.9165 17.9543 18.8931 18.0651 18.8465 18.1701Z" fill="white"/>
<defs>
<linearGradient id="paint0_linear_61_7295" x1="0" y1="16.0022" x2="32" y2="16.0022" gradientUnits="userSpaceOnUse">
<stop stop-color="#31C3FF"/>
<stop offset="1" stop-color="#BC35FE"/>
</linearGradient>
<linearGradient id="paint1_linear_61_7295" x1="0" y1="16.0022" x2="32" y2="16.0022" gradientUnits="userSpaceOnUse">
<stop stop-color="#31C3FF"/>
<stop offset="1" stop-color="#BC35FE"/>
</linearGradient>
</defs>
</svg>
