<svg width="40" height="40" viewBox="0 0 40 40" fill="none" xmlns="http://www.w3.org/2000/svg">
<path d="M34.9997 16.6666H4.99967C4.08301 16.6666 3.33301 17.4166 3.33301 18.3333V26.9833C3.33301 27.3166 3.34967 27.65 3.38301 27.9833C3.71634 33.1166 6.88301 36.2833 12.0163 36.6166C12.3497 36.65 12.683 36.6666 13.0163 36.6666H26.983C27.3163 36.6666 27.6497 36.65 27.983 36.6166C33.1163 36.2833 36.283 33.1166 36.6163 27.9833C36.6497 27.65 36.6663 27.3166 36.6663 26.9833V18.3333C36.6663 17.4166 35.9163 16.6666 34.9997 16.6666ZM13.333 26.9166C13.8997 27.75 14.6663 28.4333 15.5497 28.8833C16.183 29.1833 16.433 29.9333 16.1163 30.5666C15.8997 31 15.4497 31.25 14.9997 31.25C14.8163 31.25 14.6163 31.2 14.4497 31.1166C13.1497 30.4833 12.0497 29.5 11.2663 28.3166C10.5997 27.3166 10.5997 26.0166 11.2663 25.0166C12.0497 23.8333 13.1497 22.85 14.4497 22.2166C15.0663 21.9 15.8163 22.15 16.1163 22.7666C16.433 23.4 16.183 24.15 15.5497 24.45C14.6663 24.9 13.8997 25.5833 13.333 26.4166C13.233 26.5666 13.233 26.7666 13.333 26.9166ZM29.083 28.3166C28.283 29.5 27.183 30.4833 25.8997 31.1166C25.7163 31.2 25.533 31.25 25.3497 31.25C24.883 31.25 24.4497 31 24.233 30.5666C23.9163 29.9333 24.1663 29.1833 24.783 28.8833C25.683 28.4333 26.4497 27.75 26.9997 26.9166C27.1163 26.7666 27.1163 26.5666 26.9997 26.4166C26.4497 25.5833 25.683 24.9 24.783 24.45C24.1663 24.15 23.9163 23.4 24.233 22.7666C24.533 22.15 25.283 21.9 25.8997 22.2166C27.183 22.85 28.283 23.8333 29.083 25.0166C29.7497 26.0166 29.7497 27.3166 29.083 28.3166Z" fill="url(#paint0_linear_4_2821)"/>
<path d="M36.6663 13.0167V13.3334C36.6663 14.25 35.9163 15 34.9997 15L4.99967 15.0167C4.08301 15.0167 3.33301 14.2667 3.33301 13.35V13.0167C3.33301 12.6834 3.34967 12.35 3.38301 12.0167C3.71634 6.88337 6.88301 3.71671 12.0163 3.38337C12.3497 3.35004 12.683 3.33337 13.0163 3.33337H26.983C27.3163 3.33337 27.6497 3.35004 27.983 3.38337C33.1163 3.71671 36.283 6.88337 36.6163 12.0167C36.6497 12.35 36.6663 12.6834 36.6663 13.0167Z" fill="url(#paint1_linear_4_2821)"/>
<defs>
<linearGradient id="paint0_linear_4_2821" x1="3.33301" y1="26.668" x2="36.6663" y2="26.668" gradientUnits="userSpaceOnUse">
<stop stop-color="#31C3FF"/>
<stop offset="1" stop-color="#BC35FE"/>
</linearGradient>
<linearGradient id="paint1_linear_4_2821" x1="3.33301" y1="9.17583" x2="36.6663" y2="9.17583" gradientUnits="userSpaceOnUse">
<stop stop-color="#31C3FF"/>
<stop offset="1" stop-color="#BC35FE"/>
</linearGradient>
</defs>
</svg>
