<svg width="34" height="34" viewBox="0 0 34 34" fill="none" xmlns="http://www.w3.org/2000/svg">
<path d="M23.983 0.333252H10.0163C3.94967 0.333252 0.333008 3.94992 0.333008 10.0166V23.9666C0.333008 30.0499 3.94967 33.6666 10.0163 33.6666H23.9663C30.033 33.6666 33.6497 30.0499 33.6497 23.9833V10.0166C33.6663 3.94992 30.0497 0.333252 23.983 0.333252ZM15.3163 25.3333C15.3163 25.4999 15.283 25.6499 15.2163 25.8166C15.083 26.1166 14.8497 26.3666 14.533 26.4999C14.383 26.5666 14.2163 26.5999 14.0497 26.5999C13.883 26.5999 13.733 26.5666 13.5663 26.4999C13.4163 26.4333 13.283 26.3499 13.1663 26.2333L8.24967 21.3166C7.76634 20.8333 7.76634 20.0333 8.24967 19.5499C8.73301 19.0666 9.53301 19.0666 10.0163 19.5499L12.7997 22.3333V8.66659C12.7997 7.98325 13.3663 7.41659 14.0497 7.41659C14.733 7.41659 15.3163 7.98325 15.3163 8.66659V25.3333ZM25.733 14.4666C25.483 14.7166 25.1663 14.8333 24.8497 14.8333C24.533 14.8333 24.2163 14.7166 23.9663 14.4666L21.183 11.6833V25.3333C21.183 26.0166 20.6163 26.5833 19.933 26.5833C19.2497 26.5833 18.683 26.0166 18.683 25.3333V8.66659C18.683 8.49992 18.7163 8.34992 18.783 8.18325C18.9163 7.88325 19.1497 7.63325 19.4663 7.49992C19.7663 7.36659 20.1163 7.36659 20.4163 7.49992C20.5663 7.56659 20.6997 7.64992 20.8163 7.76659L25.733 12.6833C26.2163 13.1833 26.2163 13.9833 25.733 14.4666Z" fill="url(#paint0_linear_21_5309)"/>
<defs>
<linearGradient id="paint0_linear_21_5309" x1="0.333008" y1="17.0022" x2="33.6497" y2="17.0022" gradientUnits="userSpaceOnUse">
<stop stop-color="#31C3FF"/>
<stop offset="1" stop-color="#BC35FE"/>
</linearGradient>
</defs>
</svg>
