<svg width="30" height="34" viewBox="0 0 30 34" fill="none" xmlns="http://www.w3.org/2000/svg">
<path d="M29.8499 15.5333V8.21666C29.8499 6.84999 28.8166 5.29999 27.5332 4.78332L18.2499 0.983325C16.1666 0.133325 13.8166 0.133325 11.7332 0.983325L2.4499 4.78332C1.18324 5.29999 0.149902 6.84999 0.149902 8.21666V15.5333C0.149902 23.6833 6.06657 31.3167 14.1499 33.55C14.6999 33.7 15.2999 33.7 15.8499 33.55C23.9332 31.3167 29.8499 23.6833 29.8499 15.5333ZM16.2499 18.45V22.8333C16.2499 23.5167 15.6832 24.0833 14.9999 24.0833C14.3166 24.0833 13.7499 23.5167 13.7499 22.8333V18.45C12.0666 17.9167 10.8332 16.35 10.8332 14.5C10.8332 12.2 12.6999 10.3333 14.9999 10.3333C17.2999 10.3333 19.1666 12.2 19.1666 14.5C19.1666 16.3667 17.9332 17.9167 16.2499 18.45Z" fill="url(#paint0_linear_21_5308)"/>
<defs>
<linearGradient id="paint0_linear_21_5308" x1="3.33301" y1="20.0022" x2="36.6497" y2="20.0022" gradientUnits="userSpaceOnUse">
<stop stop-color="#31C3FF"/>
<stop offset="1" stop-color="#BC35FE"/>
</linearGradient>
</defs>
</svg>
