<svg width="40" height="40" viewBox="0 0 40 40" fill="none" xmlns="http://www.w3.org/2000/svg">
<path d="M32.9834 7.03345C28.0501 2.11678 20.0501 2.11678 15.1501 7.03345C11.7001 10.4501 10.6667 15.3668 12.0001 19.7001L4.16675 27.5334C3.61675 28.1001 3.23341 29.2168 3.35008 30.0168L3.85008 33.6501C4.03341 34.8501 5.15008 35.9834 6.35008 36.1501L9.98341 36.6501C10.7834 36.7668 11.9001 36.4001 12.4667 35.8168L13.8334 34.4501C14.1667 34.1334 14.1667 33.6001 13.8334 33.2668L10.6001 30.0334C10.1167 29.5501 10.1167 28.7501 10.6001 28.2668C11.0834 27.7834 11.8834 27.7834 12.3667 28.2668L15.6167 31.5168C15.9334 31.8334 16.4667 31.8334 16.7834 31.5168L20.3167 28.0001C24.6334 29.3501 29.5501 28.3001 32.9834 24.8834C37.9001 19.9668 37.9001 11.9501 32.9834 7.03345ZM24.1667 20.0001C21.8667 20.0001 20.0001 18.1334 20.0001 15.8334C20.0001 13.5334 21.8667 11.6668 24.1667 11.6668C26.4667 11.6668 28.3334 13.5334 28.3334 15.8334C28.3334 18.1334 26.4667 20.0001 24.1667 20.0001Z" fill="url(#paint0_linear_4_2860)"/>
<defs>
<linearGradient id="paint0_linear_4_2860" x1="3.3291" y1="20.0111" x2="36.6709" y2="20.0111" gradientUnits="userSpaceOnUse">
<stop stop-color="#31C3FF"/>
<stop offset="1" stop-color="#BC35FE"/>
</linearGradient>
</defs>
</svg>
