<svg width="32" height="32" viewBox="0 0 32 32" fill="none" xmlns="http://www.w3.org/2000/svg">
<path d="M16 32C24.8366 32 32 24.8366 32 16C32 7.16344 24.8366 0 16 0C7.16344 0 0 7.16344 0 16C0 24.8366 7.16344 32 16 32Z" fill="#F7931A"/>
<path d="M22.4279 12.1464C22.1887 10.0406 20.3545 9.36533 18.0522 9.20369L18.001 6.27722L16.2206 6.30911L16.2697 9.15848C15.8017 9.16587 15.3242 9.18409 14.8476 9.20205L14.7986 6.334L13.0179 6.36493L13.0688 9.29044C12.6834 9.30468 12.3043 9.31931 11.9352 9.32503L11.9348 9.31582L9.478 9.35812L9.51145 11.2603C9.51145 11.2603 10.8268 11.2122 10.8054 11.2366C11.5268 11.2244 11.7684 11.639 11.8433 11.9999L11.9021 15.3333C11.9516 15.3325 12.0161 15.3338 12.0907 15.3418L11.9023 15.3457L11.9838 20.0157C11.9556 20.2428 11.8285 20.6071 11.3239 20.617C11.3478 20.6365 10.0297 20.6397 10.0297 20.6397L9.71287 22.7724L12.0314 22.732C12.4623 22.7252 12.8868 22.7253 13.3028 22.7205L13.3555 25.6797L15.1349 25.6481L15.0837 22.7216C15.5725 22.7221 16.0455 22.7175 16.5072 22.7098L16.5572 25.6241L18.3376 25.5923L18.2864 22.6389C21.2784 22.4148 23.3607 21.624 23.5719 18.8073C23.7428 16.5398 22.66 15.5472 20.953 15.1692C21.9772 14.6256 22.6059 13.6879 22.4279 12.1464ZM20.0459 18.5181C20.0867 20.7299 16.2944 20.5441 15.087 20.5663L15.0198 16.6451C16.2277 16.6248 20.0066 16.2117 20.0459 18.5181ZM19.1213 13.0004C19.1563 15.0129 15.9938 14.8322 14.9891 14.8499L14.9269 11.2948C15.9316 11.2772 19.0847 10.9013 19.1213 13.0004Z" fill="white"/>
</svg>
