<svg width="32" height="32" viewBox="0 0 32 32" fill="none" xmlns="http://www.w3.org/2000/svg">
<g clip-path="url(#clip0_61_7086)">
<path d="M16 32C24.8366 32 32 24.8366 32 16C32 7.16344 24.8366 0 16 0C7.16344 0 0 7.16344 0 16C0 24.8366 7.16344 32 16 32Z" fill="#0239FB"/>
<path fill-rule="evenodd" clip-rule="evenodd" d="M16.8294 14.2842C17.037 14.2846 17.2473 14.285 17.4612 14.285C17.4391 14.3292 17.4198 14.3697 17.402 14.4071C17.3536 14.5083 17.3164 14.5862 17.2658 14.6507C16.9113 15.259 16.5578 15.8682 16.2042 16.4776C15.6267 17.4727 15.0489 18.4683 14.4663 19.4615C14.3528 19.6507 14.378 19.7453 14.5798 19.8525C15.2986 20.2434 16.0047 20.6532 16.7109 21.0694C16.9586 21.2136 17.08 21.2876 17.1759 21.2629C17.2729 21.2379 17.3438 21.1118 17.4928 20.855C17.6816 20.5269 17.8705 20.1987 18.0594 19.8704C19.094 18.0724 20.13 16.2719 21.175 14.4805C21.238 14.3733 21.4146 14.2787 21.5407 14.2724C22.2532 14.2535 22.972 14.2598 23.6844 14.2724C23.9114 14.2787 24.006 14.2219 23.9997 13.976C23.9871 13.0828 23.9934 12.1959 23.9997 11.3028L23.9997 11.2963C23.9997 11.0883 23.9493 11 23.716 11C23.1858 11.0057 22.6556 11.005 22.1253 11.0042C21.4891 11.0032 20.8528 11.0023 20.2166 11.0126C19.6554 11.0252 19.2204 11.3153 18.924 11.7881C18.779 12.0262 18.6427 12.2686 18.5061 12.5116C18.4112 12.6805 18.3161 12.8496 18.2179 13.0177C18.0161 13.3707 17.808 13.7175 17.6 14.0643L17.6 14.0643L17.5432 14.0454V11.0126H17.1712C16.9078 11.0126 16.6447 11.013 16.3819 11.0134C15.5941 11.0146 14.8081 11.0158 14.0186 11.0063C13.2935 10.9937 12.7828 11.3153 12.4297 11.9332C11.8559 12.9357 11.2759 13.9319 10.6958 14.9281C10.3603 15.505 10.0266 16.0829 9.69298 16.6606C9.1552 17.5919 8.61762 18.5228 8.07284 19.4489C7.94043 19.6759 7.99087 19.7705 8.20524 19.8777C8.39624 19.9751 8.58001 20.0846 8.764 20.1943C8.87763 20.262 8.99134 20.3297 9.10688 20.3947C9.35105 20.535 9.59647 20.6754 9.8448 20.8174C10.1544 20.9944 10.4685 21.174 10.7904 21.3594C10.9308 21.1183 11.0695 20.8824 11.2065 20.6495C11.4385 20.255 11.6655 19.869 11.8875 19.4805C12.8522 17.8096 13.8168 16.1387 14.7878 14.4678C14.832 14.3859 14.9518 14.2913 15.0401 14.2913C15.6286 14.2819 16.2172 14.283 16.8294 14.2842ZM10.3873 11.0203C10.2297 11.0196 10.0718 11.0189 9.91393 11.0189C9.76096 11.0189 9.608 11.0196 9.45458 11.0203C9.14633 11.0217 8.83622 11.0232 8.52048 11.0189C8.31872 11.0126 8.24306 11.082 8.24306 11.2901C8.24936 12.2043 8.24936 13.1123 8.24306 14.0265C8.24306 14.2346 8.32502 14.3039 8.52679 14.2913C9.23927 14.2346 9.8761 14.0013 10.4246 13.5221C11.1119 12.9231 11.4587 12.1728 11.5596 11.2838C11.5848 11.1009 11.5281 11.0126 11.3263 11.0189C11.0155 11.0231 10.7018 11.0217 10.3873 11.0203Z" fill="white"/>
</g>
<defs>
<clipPath id="clip0_61_7086">
<rect width="32" height="32" fill="white"/>
</clipPath>
</defs>
</svg>
