<svg width="60" height="23" viewBox="0 0 60 23" fill="none" xmlns="http://www.w3.org/2000/svg">
<path d="M8.89116 12C4.94537 12.0714 1 18.069 1 18.069V23H59V1C59 1 50.5475 11.4509 44.4014 9.15517C40.5764 7.72646 41.6257 2.50861 37.6939 1.37931C32.8079 -0.0240386 31.0637 7.98618 26.0544 7.06897C23.9557 6.68468 23.2571 4.87705 21.1224 4.7931C16.5945 4.61504 18.9381 13.6283 14.415 13.8966C12.1287 14.0322 11.1814 11.9586 8.89116 12Z" fill="url(#paint0_linear_61_7042)"/>
<path d="M1 18.069C1 18.069 4.94537 12.0714 8.89116 12C11.1814 11.9586 12.1287 14.0322 14.415 13.8966C18.9381 13.6283 16.5945 4.61504 21.1224 4.7931C23.2571 4.87705 23.9557 6.68468 26.0544 7.06897C31.0637 7.98618 32.8079 -0.0240385 37.6939 1.37931C41.6257 2.50861 40.5764 7.72646 44.4014 9.15517C50.5475 11.4509 59 1 59 1" stroke="#A1D085" stroke-width="2" stroke-linecap="round"/>
<defs>
<linearGradient id="paint0_linear_61_7042" x1="30" y1="1" x2="30" y2="23" gradientUnits="userSpaceOnUse">
<stop stop-color="#A1D085" stop-opacity="0.7"/>
<stop offset="1" stop-color="#A1D085" stop-opacity="0"/>
</linearGradient>
</defs>
</svg>
