<svg width="60" height="23" viewBox="0 0 60 23" fill="none" xmlns="http://www.w3.org/2000/svg">
<path d="M12.5205 5.79429C7.63163 6.09303 1 1.11884 1 1.11884V23H59V17.3894C59 17.3894 49.7724 10.5779 42.7123 9.53465C37.0925 8.70421 33.0914 13.5976 28.2123 10.8438C24.2182 8.58946 26.7695 2.18836 22.2534 1.11884C18.1153 0.138841 16.7786 5.53411 12.5205 5.79429Z" fill="url(#paint0_linear_61_7047)"/>
<path d="M1 1.11884C1 1.11884 7.63163 6.09303 12.5205 5.7943C16.7786 5.53411 18.1153 0.138841 22.2534 1.11884C26.7695 2.18836 24.2182 8.58946 28.2123 10.8438C33.0914 13.5976 37.0925 8.70422 42.7123 9.53465C49.7724 10.5779 59 17.3894 59 17.3894" stroke="#FF4D4D" stroke-width="2"/>
<defs>
<linearGradient id="paint0_linear_61_7047" x1="30" y1="1" x2="30" y2="23.7481" gradientUnits="userSpaceOnUse">
<stop stop-color="#FF4D4D" stop-opacity="0.7"/>
<stop offset="1" stop-color="#FF4D4D" stop-opacity="0"/>
</linearGradient>
</defs>
</svg>
