<svg width="351" height="829" viewBox="0 0 351 829" fill="none" xmlns="http://www.w3.org/2000/svg">
<path d="M-252.282 1C-123.687 4.92534 -11.9265 24.552 68.9714 166.649C149.869 308.747 378.145 344.467 347.672 484.602C304.651 682.439 90.9494 790.386 -135.378 820.219C-316.439 844.085 -347.364 807.396 -340.194 786.068M-296.239 1C-167.644 4.92534 -55.8836 24.552 25.0143 166.649C105.912 308.747 334.188 344.467 303.715 484.602C260.694 682.439 46.9924 790.386 -179.335 820.219C-360.396 844.085 -391.322 807.396 -384.151 786.068M-340.197 1C-211.602 4.92534 -99.8411 24.552 -18.9431 166.649C61.9548 308.747 290.23 344.467 259.757 484.602C216.736 682.439 3.03491 790.386 -223.292 820.219C-404.354 844.085 -435.279 807.396 -428.109 786.068M-384.154 1C-255.559 4.92534 -143.798 24.552 -62.9002 166.649C17.9977 308.747 246.273 344.467 215.8 484.602C172.779 682.439 -40.9221 790.386 -267.249 820.219C-448.311 844.085 -479.236 807.396 -472.066 786.068" stroke="url(#paint0_linear_4_2479)"/>
<defs>
<linearGradient id="paint0_linear_4_2479" x1="-473" y1="414.556" x2="218.581" y2="414.556" gradientUnits="userSpaceOnUse">
<stop stop-color="#31C3FF"/>
<stop offset="1" stop-color="#BC35FE"/>
</linearGradient>
</defs>
</svg>
