<svg width="70" height="18" viewBox="0 0 70 18" fill="none" xmlns="http://www.w3.org/2000/svg">
<path d="M6.90042 1.41406C9.56005 1.41406 11.7246 2.81222 12.5303 5.22114H9.76649C9.19929 4.09239 8.17111 3.53785 6.88238 3.53785C4.78794 3.53785 3.29478 5.03629 3.29478 7.42751C3.29478 9.81873 4.78794 11.3172 6.88238 11.3172C8.16911 11.3172 9.19929 10.7607 9.76649 9.61619H12.5303C11.7226 12.0408 9.56005 13.4233 6.90042 13.4233C3.45111 13.4233 0.823547 10.9475 0.823547 7.42751C0.823547 3.90754 3.44911 1.41603 6.90042 1.41603V1.41406Z" fill="white"/>
<path d="M16.9938 13.3208H14.5907V3.98992H16.9938V5.43921C17.5951 4.47957 18.5892 3.8562 19.912 3.8562V6.33198H19.2767C17.8516 6.33198 16.9938 6.87079 16.9938 8.67208V13.3208Z" fill="white"/>
<path d="M28.0648 3.99219H30.6223L24.7338 17.7358H22.1764L24.2367 13.0871L20.4267 3.99219H23.1224L25.5776 10.5091L28.0668 3.99219H28.0648Z" fill="white"/>
<path d="M37.4548 3.83862C39.8919 3.83862 41.798 5.70873 41.798 8.62107C41.798 11.5334 39.8919 13.4723 37.4548 13.4723C35.9616 13.4723 34.8974 12.7487 34.3141 11.9896V17.7651H31.911V3.99004H34.3141V5.33707C34.8813 4.54459 35.9797 3.83862 37.4548 3.83862ZM36.8194 5.90931C35.5327 5.90931 34.3141 6.88665 34.3141 8.6545C34.3141 10.4224 35.5327 11.3997 36.8194 11.3997C38.1062 11.3997 39.3428 10.3889 39.3428 8.62107C39.3428 6.85321 38.1242 5.90931 36.8194 5.90931Z" fill="white"/>
<path d="M43.9272 5.92723H42.7948V3.99026H43.9272V1.68359H46.3484V3.99026H48.4769V5.92723H46.3484V10.4403C46.3484 11.0636 46.6049 11.333 47.3605 11.333H48.4769V13.3211H46.9657C45.1458 13.3211 43.9272 12.564 43.9272 10.4245V5.92723Z" fill="white"/>
<path d="M49.9515 1.49838C49.9515 0.723589 50.5688 0.11792 51.4266 0.11792C52.2844 0.11792 52.9037 0.723589 52.9037 1.49838C52.9037 2.27316 52.2684 2.87884 51.4266 2.87884C50.5848 2.87884 49.9515 2.27316 49.9515 1.49838ZM50.208 3.99186H52.6111V13.3227H50.208V3.99186Z" fill="white"/>
<path d="M55.239 5.92636H54.1567V3.98939H55.239V3.51744C55.239 1.22651 56.5618 0.166582 59.2395 0.233441V2.22154C58.073 2.18811 57.6782 2.5578 57.6782 3.602V3.98939H59.3437V5.92636H57.6782V13.3203H55.241V5.92636H55.239Z" fill="white"/>
<path d="M67.4428 3.99219H70.0002L64.1117 17.7358H61.5543L63.6147 13.0871L59.8046 3.99219H62.5003L64.9555 10.5091L67.4448 3.99219H67.4428Z" fill="white"/>
</svg>
