<svg width="42" height="42" viewBox="0 0 42 42" fill="none" xmlns="http://www.w3.org/2000/svg">
<rect width="42" height="42" rx="4" fill="white" fill-opacity="0.05"/>
<path opacity="0.4" d="M21 28C24.866 28 28 24.866 28 21C28 17.134 24.866 14 21 14C17.134 14 14 17.134 14 21C14 24.866 17.134 28 21 28Z" fill="white"/>
<path d="M21 31.96C20.45 31.96 20 31.55 20 31V30.92C20 30.37 20.45 29.92 21 29.92C21.55 29.92 22 30.37 22 30.92C22 31.47 21.55 31.96 21 31.96ZM28.14 29.14C27.88 29.14 27.63 29.04 27.43 28.85L27.3 28.72C26.91 28.33 26.91 27.7 27.3 27.31C27.69 26.92 28.32 26.92 28.71 27.31L28.84 27.44C29.23 27.83 29.23 28.46 28.84 28.85C28.65 29.04 28.4 29.14 28.14 29.14ZM13.86 29.14C13.6 29.14 13.35 29.04 13.15 28.85C12.76 28.46 12.76 27.83 13.15 27.44L13.28 27.31C13.67 26.92 14.3 26.92 14.69 27.31C15.08 27.7 15.08 28.33 14.69 28.72L14.56 28.85C14.37 29.04 14.11 29.14 13.86 29.14ZM31 22H30.92C30.37 22 29.92 21.55 29.92 21C29.92 20.45 30.37 20 30.92 20C31.47 20 31.96 20.45 31.96 21C31.96 21.55 31.55 22 31 22ZM11.08 22H11C10.45 22 10 21.55 10 21C10 20.45 10.45 20 11 20C11.55 20 12.04 20.45 12.04 21C12.04 21.55 11.63 22 11.08 22ZM28.01 14.99C27.75 14.99 27.5 14.89 27.3 14.7C26.91 14.31 26.91 13.68 27.3 13.29L27.43 13.16C27.82 12.77 28.45 12.77 28.84 13.16C29.23 13.55 29.23 14.18 28.84 14.57L28.71 14.7C28.52 14.89 28.27 14.99 28.01 14.99ZM13.99 14.99C13.73 14.99 13.48 14.89 13.28 14.7L13.15 14.56C12.76 14.17 12.76 13.54 13.15 13.15C13.54 12.76 14.17 12.76 14.56 13.15L14.69 13.28C15.08 13.67 15.08 14.3 14.69 14.69C14.5 14.89 14.24 14.99 13.99 14.99ZM21 12.04C20.45 12.04 20 11.63 20 11.08V11C20 10.45 20.45 10 21 10C21.55 10 22 10.45 22 11C22 11.55 21.55 12.04 21 12.04Z" fill="white"/>
</svg>
