<svg width="42" height="42" viewBox="0 0 42 42" fill="none" xmlns="http://www.w3.org/2000/svg">
<rect width="42" height="42" rx="4" fill="white" fill-opacity="0.05"/>
<path d="M11.016 18.524V21.32H14.064V22.22H11.016V25.1H14.424V26H9.924V17.624H14.424V18.524H11.016ZM22.6523 26H21.5603L17.1683 19.34V26H16.0763V17.624H17.1683L21.5603 24.272V17.624H22.6523V26ZM30.8498 20.06C30.6178 19.572 30.2818 19.196 29.8418 18.932C29.4018 18.66 28.8898 18.524 28.3058 18.524C27.7218 18.524 27.1938 18.66 26.7218 18.932C26.2578 19.196 25.8898 19.58 25.6178 20.084C25.3538 20.58 25.2218 21.156 25.2218 21.812C25.2218 22.468 25.3538 23.044 25.6178 23.54C25.8898 24.036 26.2578 24.42 26.7218 24.692C27.1938 24.956 27.7218 25.088 28.3058 25.088C29.1218 25.088 29.7938 24.844 30.3218 24.356C30.8498 23.868 31.1578 23.208 31.2458 22.376H27.9098V21.488H32.4098V22.328C32.3458 23.016 32.1298 23.648 31.7618 24.224C31.3938 24.792 30.9098 25.244 30.3098 25.58C29.7098 25.908 29.0418 26.072 28.3058 26.072C27.5298 26.072 26.8218 25.892 26.1818 25.532C25.5418 25.164 25.0338 24.656 24.6578 24.008C24.2898 23.36 24.1058 22.628 24.1058 21.812C24.1058 20.996 24.2898 20.264 24.6578 19.616C25.0338 18.96 25.5418 18.452 26.1818 18.092C26.8218 17.724 27.5298 17.54 28.3058 17.54C29.1938 17.54 29.9778 17.76 30.6578 18.2C31.3458 18.64 31.8458 19.26 32.1578 20.06H30.8498Z" fill="white"/>
</svg>
