<svg width="42" height="42" viewBox="0 0 42 42" fill="none" xmlns="http://www.w3.org/2000/svg">
<rect width="42" height="42" rx="4" fill="white" fill-opacity="0.05"/>
<path d="M27.0461 16.8637L16.8644 27.0453C16.3426 27.5672 15.4772 27.5672 14.9554 27.0453C14.4336 26.5235 14.4336 25.6581 14.9554 25.1363L25.137 14.9547C25.6588 14.4329 26.5243 14.4329 27.0461 14.9547C27.5679 15.4765 27.5679 16.3419 27.0461 16.8637Z" fill="white"/>
<path d="M27.0461 27.0453C26.5243 27.5671 25.6588 27.5671 25.137 27.0453L14.9554 16.8637C14.4336 16.3419 14.4336 15.4765 14.9554 14.9547C15.4772 14.4328 16.3426 14.4328 16.8644 14.9547L27.0461 25.1363C27.5679 25.6581 27.5679 26.5235 27.0461 27.0453Z" fill="white"/>
</svg>
