<svg width="42" height="42" viewBox="0 0 42 42" fill="none" xmlns="http://www.w3.org/2000/svg">
<rect width="42" height="42" rx="4" fill="white" fill-opacity="0.05"/>
<path fill-rule="evenodd" clip-rule="evenodd" d="M12.6 15C12.6 14.6818 12.7264 14.3766 12.9515 14.1515C13.1765 13.9265 13.4817 13.8 13.8 13.8H28.2C28.5183 13.8 28.8235 13.9265 29.0485 14.1515C29.2736 14.3766 29.4 14.6818 29.4 15C29.4 15.3183 29.2736 15.6235 29.0485 15.8486C28.8235 16.0736 28.5183 16.2 28.2 16.2H13.8C13.4817 16.2 13.1765 16.0736 12.9515 15.8486C12.7264 15.6235 12.6 15.3183 12.6 15ZM12.6 21C12.6 20.6818 12.7264 20.3766 12.9515 20.1515C13.1765 19.9265 13.4817 19.8 13.8 19.8H28.2C28.5183 19.8 28.8235 19.9265 29.0485 20.1515C29.2736 20.3766 29.4 20.6818 29.4 21C29.4 21.3183 29.2736 21.6235 29.0485 21.8486C28.8235 22.0736 28.5183 22.2 28.2 22.2H13.8C13.4817 22.2 13.1765 22.0736 12.9515 21.8486C12.7264 21.6235 12.6 21.3183 12.6 21ZM19.8 27C19.8 26.6818 19.9264 26.3766 20.1515 26.1515C20.3765 25.9265 20.6817 25.8 21 25.8H28.2C28.5183 25.8 28.8235 25.9265 29.0485 26.1515C29.2736 26.3766 29.4 26.6818 29.4 27C29.4 27.3183 29.2736 27.6235 29.0485 27.8486C28.8235 28.0736 28.5183 28.2 28.2 28.2H21C20.6817 28.2 20.3765 28.0736 20.1515 27.8486C19.9264 27.6235 19.8 27.3183 19.8 27Z" fill="white"/>
</svg>
